<svg version="1.0" xmlns="http://www.w3.org/2000/svg"
 width="25" height="25" viewBox="0 0 420.000000 420.000000"
 preserveAspectRatio="xMidYMid meet">

<g transform="translate(0.000000,420.000000) scale(0.100000,-0.100000)"
fill="#000000" stroke="none">
<path d="M1107 3121 c-537 -170 -984 -314 -992 -321 -18 -15 -19 -50 -3 -72 8
-10 135 -55 301 -106 159 -50 290 -92 292 -94 3 -2 -13 -38 -35 -79 -62 -116
-120 -333 -120 -450 0 -31 -6 -43 -34 -66 -101 -83 -111 -225 -23 -320 l40
-43 -22 -163 c-11 -89 -35 -260 -51 -381 -30 -222 -30 -246 6 -260 8 -3 96 -6
195 -6 169 0 180 1 200 21 17 17 20 29 15 58 -3 20 -26 193 -51 384 l-47 348
41 44 c46 50 56 78 56 155 -1 63 -35 135 -80 164 -17 11 -25 25 -25 46 0 52
37 223 65 295 26 71 84 162 110 171 11 5 509 -148 1002 -307 67 -21 136 -39
153 -39 17 0 194 51 393 114 199 63 551 174 782 246 231 72 506 158 610 191
105 33 196 67 203 76 19 26 14 61 -10 77 -23 15 -1921 614 -1968 621 -15 3
-434 -125 -1003 -304z"/>
<path d="M1017 2126 c-4 -39 -12 -172 -18 -296 -12 -214 -11 -227 7 -265 98
-207 551 -355 1089 -355 538 0 979 138 1089 340 l30 54 -13 231 c-18 343 -21
367 -40 360 -9 -4 -236 -76 -506 -162 -393 -124 -502 -155 -550 -156 -51 -1
-132 22 -545 152 -267 85 -497 157 -511 161 -26 8 -26 8 -32 -64z"/>
</g>
</svg>
