<svg width="27" height="17" viewBox="0 0 27 17" fill="none" xmlns="http://www.w3.org/2000/svg">
<path d="M25 2H2V15H25V2Z" fill="white"/>
<path fill-rule="evenodd" clip-rule="evenodd" d="M26 2.89979C25.9967 2.42941 25.8014 1.97713 25.4525 1.63178C25.4468 1.62548 25.4425 1.6183 25.4396 1.61058C25.4337 1.60515 25.425 1.60319 25.4186 1.59725C25.023 1.21575 24.4736 0.999798 23.899 1H3.10045C2.5253 1.00018 1.97534 1.21603 1.57872 1.59725C1.57227 1.60319 1.56417 1.60515 1.55987 1.61256C1.55437 1.61889 1.55017 1.62607 1.54745 1.63376C1.19771 1.97786 1.00227 2.42983 1 2.89979V14.0987C1.00123 14.5808 1.20564 15.0439 1.57064 15.3914C1.57524 15.3997 1.58083 15.4074 1.58731 15.4146C1.58947 15.4165 1.59378 15.4165 1.5954 15.42C1.99098 15.7913 2.53377 16.0005 3.1004 16H23.8989C24.4658 16 25.0085 15.7903 25.4039 15.4185L25.4126 15.4146C25.4185 15.4087 25.4207 15.3993 25.4292 15.3934C25.7937 15.0447 25.998 14.5813 25.9999 14.0987L26 2.89979ZM17.816 7.90883L25.021 2.44128C25.0936 2.58512 25.1316 2.74152 25.1326 2.89995V14.0989C25.132 14.2428 25.1013 14.3853 25.0421 14.5186L17.816 7.90883ZM23.899 1.78432C24.074 1.78458 24.247 1.8187 24.4066 1.88445L13.4987 10.1608L2.59338 1.88445C2.75278 1.81866 2.92561 1.78453 3.10047 1.78432H23.899ZM1.95754 14.5186C1.89685 14.3856 1.86536 14.243 1.86487 14.0989V2.89995C1.86575 2.7413 1.90456 2.58475 1.97856 2.44128L9.18408 7.90883L1.95754 14.5186ZM3.10041 15.2157C2.90804 15.2141 2.71867 15.1719 2.547 15.0924L9.84897 8.4131L13.2211 10.9718C13.3819 11.0948 13.6158 11.0948 13.7766 10.9718L17.1509 8.4131L24.4524 15.0924C24.2807 15.1719 24.0913 15.2141 23.899 15.2157H3.10041Z" fill="#EA0606" stroke="#EA0606"/>
</svg>
